# xmcd
#
# Track frame offsets:
# 182
# 14395
# 26170
# 40712
# 53290
# 66315
# 78250
# 94840
# 107307
# 125105
# 137012
# 150920
# 161995
# 175832
# 188320
# 198507
# 209650
# 220815
# 232880
#
# Disc length: 3277 seconds
#
#
# Revision: 0
# Processed by: cddbd v1.4PL0 Copyright (c) Steve Scherf et al.
# Submitted via: FreeRIP 2.35 
#
DISCID=f60ccb13
DTITLE=Charlie Rich cd 2 - Very special love songs
DYEAR=1900
DGENRE=Country
TTITLE0=We Love Each Other
TTITLE1=Try A Little Tenderness
TTITLE2=Almost Persuaded
TTITLE3=A Picture Of You
TTITLE4=All Over Me
TTITLE5=Raggedy Ann
TTITLE6=Life's Little Ups And Downs
TTITLE7=A Part Of Your Life
TTITLE8=My Elusive Dreams
TTITLE9=Hello Darlin'
TTITLE10=Since I Fell For You
TTITLE11=I Love My Friend
TTITLE12=Every Time You Touch Me (I Get High)
TTITLE13=A Very Special Love Song
TTITLE14=I Don't see Me In Your Eyes Anymore
TTITLE15=She Called Me Baby
TTITLE16=School Days
TTITLE17=It's Too Late
TTITLE18=Stay
EXTD=
EXTT0=
EXTT1=
EXTT2=
EXTT3=
EXTT4=
EXTT5=
EXTT6=
EXTT7=
EXTT8=
EXTT9=
EXTT10=
EXTT11=
EXTT12=
EXTT13=
EXTT14=
EXTT15=
EXTT16=
EXTT17=
EXTT18=
PLAYORDER=
